# xmcd CD database file
#
# Track frame offsets:
#	150
#	12867
#	30107
#	48277
#	68735
#	82840
#	102950
#	126875
#	143615
#	162122
#	177272
#	200367
#	217087
#	240334
#	258215
#	275685
#	294930
#	308177
#	326060
#
# Disc length: 4616 seconds
#
# Revision: 0
# Processed by: cddbd v1.4PL0 Copyright (c) Steve Scherf et al.
# Submitted via: CDex 1.50beta10
#
DISCID=fb120613
DTITLE=Bix Centennial All Stars - Celebrating Bix!
DYEAR=2003
DGENRE=Jazz
TTITLE0=At the Jazz Band Ball
TTITLE1=Proud of a Baby Like You
TTITLE2=Deep Harlem
TTITLE3=Riverboat Shuffle
TTITLE4=Davenport Blues
TTITLE5=Jazz Me Blues
TTITLE6=Blue River
TTITLE7=I Need Some Pettin'
TTITLE8=I'm Coming Virginia
TTITLE9=Lonely Melody
TTITLE10=Clementine (From New Orleans)
TTITLE11=From Monday On
TTITLE12=Singin' the Blues (Till My Daddy Comes Home)
TTITLE13=There'll Come a Time (Wait and See)
TTITLE14=Borneo
TTITLE15=Clarinet Marmalade
TTITLE16=Way down Yonder in New Orleans
TTITLE17=San
TTITLE18=Deep Down South
EXTD=YEAR: 2003
EXTT0=
EXTT1=
EXTT2=
EXTT3=
EXTT4=
EXTT5=
EXTT6=
EXTT7=
EXTT8=
EXTT9=
EXTT10=
EXTT11=
EXTT12=
EXTT13=
EXTT14=
EXTT15=
EXTT16=
EXTT17=
EXTT18=
PLAYORDER=
